<?xml version="1.0" encoding="utf-8"?>
<svg viewBox="281.745 210.96 78.388 31.905" xmlns="http://www.w3.org/2000/svg">
  <defs>
    <linearGradient id="gradient-1" x1="0" y1="0" x2="0" y2="32" gradientUnits="userSpaceOnUse" gradientTransform="matrix(0.861401, 0, 0, 1, 281.744604, 210.960281)">
      <stop stop-color="#BBBBBB" stop-opacity="0.1"/>
      <stop offset="1" stop-opacity="0.1"/>
    </linearGradient>
    <linearGradient gradientUnits="userSpaceOnUse" x1="269.493" y1="210.704" x2="269.493" y2="227.454" id="gradient-4" gradientTransform="matrix(0.893443, 0, 0, 0.893443, 105.733758, 31.262031)">
      <stop offset="0" style="stop-color: rgb(255, 255, 255);"/>
      <stop offset="1" style="stop-color: rgb(186, 198, 255);"/>
    </linearGradient>
  </defs>
  <path d="M 356.184 210.961 L 312.745 210.961 L 312.745 242.961 L 356.184 242.961 C 358.365 242.961 360.133 240.722 360.133 237.961 L 360.133 215.961 C 360.133 213.2 358.365 210.961 356.184 210.961 Z" fill="#0F1418" style="" transform="matrix(0.9999999999999999, 0, 0, 0.9999999999999999, 2.842170943040401e-14, 2.842170943040401e-14)"/>
  <path d="M 312.745 210.961 L 286.745 210.961 C 283.983 210.961 281.745 213.2 281.745 215.961 L 281.745 237.961 C 281.745 240.722 283.983 242.961 286.745 242.961 L 312.745 242.961 L 312.745 210.961 Z" style="fill: rgb(40, 65, 114);" transform="matrix(0.9999999999999999, 0, 0, 0.9999999999999999, 2.842170943040401e-14, 2.842170943040401e-14)"/>
  <path d="M 355.825 210.961 L 286.052 210.961 C 283.673 210.961 281.745 213.2 281.745 215.961 L 281.745 237.961 C 281.745 240.722 283.673 242.961 286.052 242.961 L 355.825 242.961 C 358.204 242.961 360.133 240.722 360.133 237.961 L 360.133 215.961 C 360.133 213.2 358.204 210.961 355.825 210.961 Z" fill="url(#gradient-1)" style="" transform="matrix(0.9999999999999999, 0, 0, 0.9999999999999999, 2.842170943040401e-14, 2.842170943040401e-14)"/>
  <g style="" transform="matrix(0.030882002785801884, 0, 0, 0.030882002785801884, 214.7975616455078, 241.17276000976562)">
    <path d="M 2791.891 -923.898 C 2792.975 -923.663 2794.059 -923.428 2795.175 -923.186 C 2809.335 -920.117 2823.185 -916.603 2836.891 -911.898 C 2837.605 -911.656 2838.319 -911.414 2839.055 -911.164 C 2850.123 -907.398 2861.041 -903.251 2871.891 -898.898 C 2873.095 -898.416 2874.299 -897.934 2875.539 -897.437 C 2883.58 -894.106 2891.206 -890.187 2898.855 -886.058 C 2902.227 -884.24 2905.636 -882.517 2909.078 -880.835 C 2919.746 -875.545 2929.939 -869.426 2939.891 -862.898 C 2940.496 -862.503 2941.102 -862.108 2941.726 -861.701 C 2943.721 -860.396 2945.713 -859.086 2947.703 -857.773 C 2948.326 -857.365 2948.948 -856.957 2949.59 -856.537 C 2952.535 -854.581 2955.337 -852.577 2958.027 -850.281 C 2960.577 -848.159 2963.048 -846.581 2965.891 -844.898 C 2968.065 -843.279 2970.205 -841.644 2972.328 -839.96 C 2973.241 -839.239 2973.241 -839.239 2974.172 -838.503 C 2983.923 -830.741 2993.287 -822.563 3002.398 -814.062 C 3005.364 -811.295 3008.369 -808.594 3011.453 -805.96 C 3014.307 -803.495 3016.597 -800.903 3018.891 -797.898 C 3021.11 -795.617 3023.374 -793.393 3025.672 -791.191 C 3030.701 -786.291 3035.13 -781.069 3039.517 -775.592 C 3041.067 -773.681 3042.643 -771.792 3044.223 -769.906 C 3054.347 -757.797 3063.358 -745.254 3072.141 -732.148 C 3072.719 -731.285 3073.298 -730.421 3073.895 -729.532 C 3084.438 -713.674 3093.578 -697.016 3101.891 -679.898 C 3102.268 -679.13 3102.644 -678.362 3103.033 -677.571 C 3107.457 -668.546 3111.557 -659.619 3114.781 -650.089 C 3115.868 -646.963 3117.092 -643.941 3118.391 -640.898 C 3126.772 -620.986 3132.289 -599.976 3136.891 -578.898 C 3137.27 -577.221 3137.27 -577.221 3137.656 -575.511 C 3152.765 -505.032 3150.778 -424.675 3127.593 -356.051 C 3126.649 -353.157 3125.823 -350.234 3124.998 -347.304 C 3122.885 -339.805 3120.342 -332.625 3117.352 -325.433 C 3116.004 -322.172 3114.749 -318.891 3113.516 -315.585 C 3108.247 -301.868 3101.986 -288.753 3094.891 -275.898 C 3094.378 -274.947 3093.865 -273.995 3093.336 -273.015 C 3087.25 -261.731 3080.928 -250.618 3073.891 -239.898 C 3073.501 -239.303 3073.111 -238.708 3072.709 -238.095 C 3063.873 -224.634 3063.873 -224.634 3058.949 -218.316 C 3057.8 -216.863 3057.8 -216.863 3056.891 -214.898 C 3056.231 -214.898 3055.571 -214.898 3054.891 -214.898 C 3054.633 -214.172 3054.375 -213.446 3054.109 -212.699 C 3052.838 -209.777 3051.35 -207.589 3049.391 -205.085 C 3048.782 -204.295 3048.174 -203.505 3047.547 -202.691 C 3047 -202.099 3046.454 -201.507 3045.891 -200.898 C 3045.231 -200.898 3044.571 -200.898 3043.891 -200.898 C 3043.574 -200.119 3043.574 -200.119 3043.25 -199.324 C 3041.311 -195.863 3038.749 -193.059 3036.141 -190.085 C 3035.371 -189.199 3035.371 -189.199 3034.586 -188.294 C 3033.55 -187.102 3032.512 -185.911 3031.471 -184.724 C 3030.376 -183.458 3029.297 -182.179 3028.232 -180.889 C 3027.702 -180.248 3027.172 -179.608 3026.625 -178.949 C 3026.148 -178.364 3025.67 -177.779 3025.179 -177.176 C 3023.891 -175.898 3023.891 -175.898 3021.891 -175.898 C 3021.231 -174.578 3020.571 -173.258 3019.891 -171.898 C 3019.231 -171.898 3018.571 -171.898 3017.891 -171.898 C 3017.561 -170.908 3017.231 -169.918 3016.891 -168.898 C 3016.231 -168.898 3015.571 -168.898 3014.891 -168.898 C 3014.231 -167.578 3013.571 -166.258 3012.891 -164.898 C 3012.231 -164.898 3011.571 -164.898 3010.891 -164.898 C 3010.561 -163.908 3010.231 -162.918 3009.891 -161.898 C 3009.231 -161.898 3008.571 -161.898 3007.891 -161.898 C 3007.231 -160.578 3006.571 -159.258 3005.891 -157.898 C 3005.231 -157.898 3004.571 -157.898 3003.891 -157.898 C 3003.561 -156.908 3003.231 -155.918 3002.891 -154.898 C 3001.43 -153.39 3001.43 -153.39 2999.516 -151.773 C 2998.421 -150.845 2998.421 -150.845 2997.305 -149.898 C 2993.391 -146.656 2989.468 -143.428 2985.52 -140.227 C 2983.759 -138.791 2982.01 -137.341 2980.262 -135.89 C 2967.937 -125.705 2955.207 -115.988 2941.594 -107.574 C 2939.544 -106.303 2937.518 -105.011 2935.5 -103.691 C 2928.453 -99.085 2921.343 -94.827 2913.891 -90.898 C 2912.798 -90.295 2911.704 -89.691 2910.578 -89.07 C 2901.004 -83.805 2891.149 -79.319 2881.157 -74.91 C 2878.129 -73.558 2875.136 -72.134 2872.141 -70.71 C 2865.462 -67.612 2858.61 -65.064 2851.693 -62.558 C 2850.144 -61.991 2848.602 -61.401 2847.063 -60.808 C 2840.115 -58.155 2833.021 -56.2 2825.852 -54.257 C 2821.502 -53.076 2817.176 -51.824 2812.85 -50.561 C 2803.921 -47.964 2795.036 -45.619 2785.891 -43.898 C 2784.794 -43.678 2784.794 -43.678 2783.675 -43.454 C 2752.061 -37.15 2720.231 -35.28 2688.07 -35.36 C 2683.39 -35.367 2678.711 -35.351 2674.032 -35.338 C 2664.928 -35.317 2655.825 -35.317 2646.722 -35.325 C 2639.318 -35.331 2631.913 -35.33 2624.509 -35.324 C 2623.446 -35.323 2622.383 -35.322 2621.288 -35.321 C 2619.127 -35.319 2616.967 -35.317 2614.806 -35.315 C 2594.674 -35.299 2574.541 -35.307 2554.408 -35.324 C 2536.037 -35.339 2517.666 -35.324 2499.295 -35.296 C 2480.342 -35.266 2461.39 -35.255 2442.437 -35.265 C 2440.29 -35.266 2438.144 -35.267 2435.998 -35.268 C 2434.942 -35.268 2433.887 -35.269 2432.799 -35.269 C 2425.406 -35.271 2418.013 -35.262 2410.62 -35.247 C 2401.608 -35.229 2392.597 -35.23 2383.585 -35.252 C 2378.999 -35.263 2374.413 -35.267 2369.827 -35.248 C 2348.019 -35.166 2328.031 -35.545 2307.891 -44.898 C 2306.897 -45.332 2305.903 -45.767 2304.879 -46.214 C 2284.966 -55.488 2268.67 -72.421 2258.891 -91.898 C 2258.225 -93.176 2258.225 -93.176 2257.547 -94.48 C 2249.558 -110.725 2247.578 -129.216 2247.63 -147.08 C 2247.627 -148.572 2247.623 -150.063 2247.618 -151.555 C 2247.608 -155.62 2247.61 -159.684 2247.615 -163.748 C 2247.617 -168.147 2247.608 -172.546 2247.6 -176.945 C 2247.588 -185.556 2247.586 -194.167 2247.588 -202.778 C 2247.59 -209.797 2247.588 -216.815 2247.584 -223.833 C 2247.583 -225.337 2247.583 -225.337 2247.582 -226.87 C 2247.581 -228.907 2247.58 -230.944 2247.579 -232.981 C 2247.568 -252.074 2247.57 -271.167 2247.576 -290.26 C 2247.581 -307.633 2247.57 -325.006 2247.551 -342.379 C 2247.531 -360.287 2247.523 -378.195 2247.527 -396.103 C 2247.529 -406.128 2247.527 -416.153 2247.512 -426.179 C 2247.5 -434.731 2247.499 -443.284 2247.511 -451.836 C 2247.517 -456.179 2247.518 -460.523 2247.506 -464.866 C 2247.458 -483.264 2247.938 -501.525 2249.293 -519.877 C 2249.387 -521.161 2249.387 -521.161 2249.483 -522.471 C 2251.453 -548.768 2256.232 -574.404 2262.891 -599.898 C 2263.147 -600.881 2263.404 -601.865 2263.668 -602.878 C 2267.381 -616.789 2272.04 -630.352 2276.891 -643.898 C 2277.157 -644.646 2277.423 -645.394 2277.697 -646.165 C 2280.43 -653.818 2283.37 -661.224 2287.129 -668.445 C 2289.002 -672.117 2290.765 -675.83 2292.521 -679.559 C 2305.033 -706.133 2320.368 -730.443 2337.828 -754.035 C 2338.408 -754.818 2338.988 -755.602 2339.586 -756.41 C 2340.151 -757.172 2340.716 -757.934 2341.298 -758.72 C 2342.733 -760.682 2344.124 -762.669 2345.508 -764.667 C 2347.683 -767.736 2350.193 -770.273 2352.891 -772.898 C 2354.351 -774.629 2355.789 -776.379 2357.203 -778.148 C 2360.197 -781.837 2363.212 -785.499 2366.328 -789.085 C 2366.966 -789.821 2367.604 -790.557 2368.262 -791.316 C 2369.891 -792.898 2369.891 -792.898 2371.891 -792.898 C 2372.551 -794.218 2373.211 -795.538 2373.891 -796.898 C 2374.551 -796.898 2375.211 -796.898 2375.891 -796.898 C 2376.159 -797.496 2376.427 -798.094 2376.703 -798.71 C 2377.89 -800.896 2378.987 -802.311 2380.891 -803.898 C 2381.551 -803.898 2382.211 -803.898 2382.891 -803.898 C 2383.881 -805.878 2383.881 -805.878 2384.891 -807.898 C 2385.551 -807.898 2386.211 -807.898 2386.891 -807.898 C 2387.221 -808.888 2387.551 -809.878 2387.891 -810.898 C 2389.387 -812.406 2389.387 -812.406 2391.328 -814.023 C 2394.509 -816.717 2397.625 -819.461 2400.703 -822.273 C 2413.774 -834.049 2427.856 -844.597 2442.227 -854.718 C 2443.392 -855.544 2444.551 -856.377 2445.707 -857.216 C 2448.81 -859.465 2451.862 -861.555 2455.266 -863.335 C 2458.31 -864.972 2461.177 -866.727 2464.02 -868.691 C 2469 -872.038 2474.172 -874.93 2479.453 -877.773 C 2480.419 -878.295 2481.385 -878.818 2482.38 -879.356 C 2501.946 -889.889 2521.923 -899.48 2542.891 -906.898 C 2544.228 -907.376 2544.228 -907.376 2545.592 -907.863 C 2624.141 -935.882 2710.366 -942.065 2791.891 -923.898 Z" style="fill: rgba(40, 65, 114, 0);"/>
    <path d="M 2900.73 -807.871 C 2911.046 -798.451 2917.915 -788.433 2919.109 -774.312 C 2919.578 -760.693 2915.081 -748.183 2905.828 -738.148 C 2894.451 -727.444 2882.146 -724.547 2867.078 -724.711 C 2865.966 -724.711 2864.854 -724.712 2863.709 -724.713 C 2858.607 -724.74 2853.57 -724.876 2848.492 -725.383 C 2824.446 -727.78 2800.509 -726.781 2778.891 -714.898 C 2777.406 -714.096 2777.406 -714.096 2775.891 -713.277 C 2769.436 -709.654 2763.543 -705.672 2757.891 -700.898 C 2757.079 -700.22 2756.266 -699.542 2755.43 -698.844 C 2733.646 -680.009 2721.786 -654.249 2718.891 -625.898 C 2718.376 -617.413 2718.467 -608.907 2718.492 -600.41 C 2718.49 -598.008 2718.487 -595.605 2718.483 -593.203 C 2718.479 -588.21 2718.485 -583.218 2718.5 -578.225 C 2718.517 -571.83 2718.507 -565.436 2718.489 -559.042 C 2718.478 -554.1 2718.481 -549.158 2718.489 -544.216 C 2718.491 -541.856 2718.489 -539.497 2718.482 -537.138 C 2718.474 -533.853 2718.486 -530.569 2718.502 -527.284 C 2718.493 -525.832 2718.493 -525.832 2718.484 -524.351 C 2718.545 -517.91 2719.587 -513.648 2723.828 -508.586 C 2727.99 -505.18 2732.795 -505.753 2737.957 -505.756 C 2739.173 -505.751 2739.173 -505.751 2740.413 -505.746 C 2742.171 -505.739 2743.93 -505.733 2745.688 -505.73 C 2748.481 -505.722 2751.274 -505.707 2754.067 -505.688 C 2762.008 -505.636 2769.948 -505.588 2777.889 -505.572 C 2782.75 -505.562 2787.611 -505.533 2792.472 -505.491 C 2794.316 -505.479 2796.159 -505.474 2798.002 -505.476 C 2815.257 -505.492 2828.995 -502.436 2842.078 -490.398 C 2852.297 -479.744 2856.56 -466.527 2856.328 -451.976 C 2855.363 -439.467 2848.619 -426.703 2839.215 -418.59 C 2828.414 -410.448 2818.621 -406.56 2805.078 -406.671 C 2804.131 -406.671 2803.184 -406.671 2802.208 -406.67 C 2799.102 -406.672 2795.996 -406.687 2792.891 -406.703 C 2790.727 -406.707 2788.564 -406.71 2786.401 -406.712 C 2780.726 -406.719 2775.051 -406.739 2769.376 -406.761 C 2763.577 -406.781 2757.779 -406.791 2751.98 -406.801 C 2740.617 -406.822 2729.254 -406.856 2717.891 -406.898 C 2717.894 -406.247 2717.898 -405.596 2717.902 -404.925 C 2717.991 -388.952 2718.057 -372.978 2718.098 -357.005 C 2718.118 -349.279 2718.146 -341.554 2718.192 -333.829 C 2718.233 -327.082 2718.258 -320.335 2718.267 -313.588 C 2718.272 -310.028 2718.284 -306.468 2718.314 -302.908 C 2718.508 -278.643 2716.574 -255.046 2708.891 -231.898 C 2708.634 -231.124 2708.378 -230.35 2708.113 -229.553 C 2704.269 -218.174 2699.561 -207.475 2693.891 -196.898 C 2693.5 -196.157 2693.109 -195.415 2692.706 -194.651 C 2687.469 -184.741 2681.961 -175.626 2674.891 -166.898 C 2674.196 -166.013 2673.501 -165.127 2672.785 -164.215 C 2664.431 -153.73 2655.383 -143.3 2644.891 -134.898 C 2643.877 -134.071 2642.864 -133.243 2641.82 -132.39 C 2617.521 -112.75 2589.686 -97.545 2559.128 -90.457 C 2557.314 -90.004 2555.517 -89.48 2553.729 -88.935 C 2539.448 -85.076 2524.586 -84.404 2509.869 -84.507 C 2507.127 -84.523 2504.386 -84.507 2501.645 -84.488 C 2488.339 -84.471 2475.219 -85.187 2462.737 -90.221 C 2460.611 -91.049 2460.611 -91.049 2457.141 -91.711 C 2442.949 -95.203 2431.071 -105.228 2423.293 -117.398 C 2416.973 -128.666 2415.702 -141.837 2419.016 -154.398 C 2423.791 -167.288 2432.273 -176.811 2444.668 -182.712 C 2457.828 -188.592 2471.516 -187.299 2485.516 -185.898 C 2519.969 -182.517 2551.046 -188.305 2578.703 -210.461 C 2580.443 -211.927 2582.173 -213.405 2583.891 -214.898 C 2584.515 -215.437 2585.138 -215.976 2585.781 -216.531 C 2598.897 -228.728 2607.432 -246.089 2612.891 -262.898 C 2613.214 -263.82 2613.538 -264.742 2613.871 -265.691 C 2618.27 -279.527 2617.218 -294.66 2617.227 -308.992 C 2617.233 -311.514 2617.24 -314.035 2617.247 -316.557 C 2617.259 -321.815 2617.263 -327.073 2617.261 -332.331 C 2617.26 -338.397 2617.281 -344.462 2617.313 -350.528 C 2617.342 -356.394 2617.349 -362.259 2617.348 -368.125 C 2617.35 -370.61 2617.359 -373.095 2617.375 -375.579 C 2617.394 -379.045 2617.389 -382.509 2617.376 -385.974 C 2617.388 -386.997 2617.399 -388.019 2617.411 -389.073 C 2617.36 -394.77 2617.086 -398.643 2612.891 -402.898 C 2607.669 -405.917 2602.371 -406.329 2596.462 -406.267 C 2595.661 -406.271 2594.86 -406.275 2594.034 -406.279 C 2592.308 -406.285 2590.581 -406.285 2588.855 -406.278 C 2586.112 -406.269 2583.37 -406.28 2580.627 -406.295 C 2572.833 -406.335 2565.039 -406.336 2557.245 -406.334 C 2552.464 -406.334 2547.682 -406.353 2542.901 -406.383 C 2540.218 -406.394 2537.535 -406.382 2534.852 -406.37 C 2518.62 -406.405 2505.678 -410.345 2493.578 -421.711 C 2483.699 -432.238 2480.351 -443.897 2480.398 -458.052 C 2480.854 -471.64 2486.815 -483.242 2496.516 -492.586 C 2506.851 -501.489 2518.177 -505.236 2531.611 -505.125 C 2532.549 -505.126 2533.486 -505.126 2534.452 -505.126 C 2537.526 -505.125 2540.599 -505.109 2543.672 -505.094 C 2545.813 -505.09 2547.954 -505.087 2550.095 -505.085 C 2555.71 -505.077 2561.326 -505.058 2566.942 -505.036 C 2572.68 -505.015 2578.418 -505.006 2584.156 -504.996 C 2595.401 -504.975 2606.646 -504.94 2617.891 -504.898 C 2617.889 -505.495 2617.887 -506.091 2617.885 -506.705 C 2617.841 -521.334 2617.808 -535.964 2617.787 -550.593 C 2617.777 -557.668 2617.763 -564.743 2617.74 -571.818 C 2617.72 -577.998 2617.707 -584.177 2617.702 -590.356 C 2617.7 -593.617 2617.693 -596.877 2617.679 -600.137 C 2617.424 -663.297 2634.792 -719.746 2679.668 -765.719 C 2693.795 -779.781 2709.646 -790.989 2726.891 -800.898 C 2727.598 -801.307 2728.306 -801.716 2729.035 -802.137 C 2745.392 -811.48 2762.708 -817.225 2780.891 -821.898 C 2781.532 -822.071 2782.174 -822.243 2782.834 -822.421 C 2818.173 -831.709 2871.073 -832.361 2900.73 -807.871 Z" fill="#FEFEFE"/>
    <path d="M 2508.608 -407.059 C 2510.156 -407.066 2510.156 -407.066 2511.735 -407.074 C 2515.122 -407.088 2518.508 -407.095 2521.895 -407.101 C 2523.057 -407.104 2524.219 -407.107 2525.416 -407.109 C 2531.559 -407.124 2537.702 -407.134 2543.845 -407.138 C 2550.179 -407.143 2556.513 -407.168 2562.847 -407.196 C 2567.731 -407.215 2572.615 -407.22 2577.499 -407.221 C 2579.834 -407.224 2582.169 -407.232 2584.504 -407.246 C 2587.77 -407.263 2591.036 -407.261 2594.303 -407.254 C 2595.261 -407.263 2596.218 -407.273 2597.205 -407.282 C 2603.581 -407.243 2609.474 -406.858 2614.472 -402.528 C 2618.729 -397.498 2618.589 -392.241 2618.506 -385.908 C 2618.511 -384.822 2618.517 -383.737 2618.523 -382.618 C 2618.534 -379.036 2618.51 -375.456 2618.484 -371.874 C 2618.483 -369.369 2618.483 -366.864 2618.484 -364.359 C 2618.483 -359.105 2618.465 -353.851 2618.433 -348.597 C 2618.392 -341.906 2618.389 -335.214 2618.396 -328.523 C 2618.399 -323.344 2618.387 -318.165 2618.37 -312.987 C 2618.363 -310.522 2618.36 -308.058 2618.361 -305.594 C 2618.342 -270.96 2610.438 -240.541 2585.353 -215.321 C 2562.384 -192.966 2533.719 -183.412 2502.152 -183.749 C 2473.546 -184.372 2448.18 -197.338 2427.891 -216.898 C 2427.232 -217.493 2426.573 -218.089 2425.895 -218.702 C 2407.515 -235.766 2396.524 -264.345 2395.605 -288.909 C 2394.961 -318.97 2403.13 -344.957 2422.891 -367.898 C 2423.48 -368.631 2424.069 -369.365 2424.676 -370.12 C 2441.948 -390.913 2468.707 -403.849 2495.362 -406.691 C 2499.776 -407.052 2504.182 -407.054 2508.608 -407.059 Z" fill="#284172"/>
    <path d="M 2826.891 -727.21 C 2827.585 -727.207 2828.279 -727.205 2828.994 -727.202 C 2858.451 -727.039 2884.258 -716.925 2905.891 -696.897 C 2907.122 -695.788 2907.122 -695.788 2908.379 -694.655 C 2922.069 -681.746 2931.491 -663.754 2936.891 -645.897 C 2937.21 -644.906 2937.53 -643.915 2937.859 -642.893 C 2945.659 -614.041 2938.533 -583.801 2924.391 -558.397 C 2908.284 -532.07 2881.969 -513.865 2852.117 -506.583 C 2847.12 -505.521 2842.166 -505.037 2837.074 -504.694 C 2835.902 -504.614 2834.73 -504.533 2833.523 -504.45 C 2814.734 -503.351 2795.884 -503.845 2777.075 -504.107 C 2772.865 -504.161 2768.655 -504.2 2764.445 -504.238 C 2760.371 -504.278 2756.297 -504.326 2752.223 -504.378 C 2750.288 -504.401 2748.352 -504.422 2746.416 -504.44 C 2743.733 -504.466 2741.05 -504.505 2738.367 -504.547 C 2737.184 -504.555 2737.184 -504.555 2735.977 -504.563 C 2730.946 -504.659 2726.919 -505.035 2723.125 -508.518 C 2722.635 -509.118 2722.145 -509.717 2721.641 -510.335 C 2720.89 -511.23 2720.89 -511.23 2720.125 -512.143 C 2718.026 -515.126 2717.764 -517.736 2717.75 -521.268 C 2717.744 -522.162 2717.739 -523.056 2717.733 -523.977 C 2717.732 -524.955 2717.731 -525.934 2717.729 -526.942 C 2717.722 -528.492 2717.722 -528.492 2717.714 -530.073 C 2717.7 -533.504 2717.693 -536.935 2717.688 -540.366 C 2717.682 -542.76 2717.676 -545.154 2717.67 -547.548 C 2717.66 -552.582 2717.654 -557.616 2717.65 -562.65 C 2717.645 -569.052 2717.621 -575.454 2717.592 -581.857 C 2717.574 -586.812 2717.569 -591.768 2717.567 -596.724 C 2717.564 -599.08 2717.556 -601.437 2717.543 -603.794 C 2717.357 -639.498 2725.242 -669.811 2750.891 -695.897 C 2751.625 -696.645 2752.36 -697.393 2753.117 -698.163 C 2760.247 -704.983 2768.405 -709.963 2776.891 -714.897 C 2777.766 -715.414 2778.641 -715.931 2779.543 -716.464 C 2786.527 -720.272 2794.203 -722.314 2801.856 -724.345 C 2803.743 -724.857 2805.611 -725.437 2807.477 -726.022 C 2813.81 -727.576 2820.411 -727.247 2826.891 -727.21 Z" fill="#284172"/>
    <path d="M 2521.891 -504.898 C 2519.32 -503.567 2516.878 -502.527 2514.141 -501.523 C 2500.075 -496.229 2491.05 -487.91 2484.641 -474.23 C 2480.31 -463.327 2480.13 -449.588 2483.785 -438.417 C 2489.507 -425.376 2498.221 -417.096 2510.891 -410.898 C 2514.185 -409.682 2517.471 -408.692 2520.891 -407.898 C 2520.891 -407.568 2520.891 -407.238 2520.891 -406.898 C 2519.955 -406.868 2519.955 -406.868 2519.001 -406.838 C 2487.192 -405.777 2459.84 -400.177 2434.891 -378.898 C 2434.142 -378.295 2433.393 -377.691 2432.621 -377.07 C 2413.527 -361.152 2399.866 -334.896 2397.085 -310.276 C 2394.593 -279.854 2401.047 -250.349 2420.266 -226.085 C 2421.783 -224.335 2423.325 -222.605 2424.891 -220.898 C 2426.155 -219.512 2426.155 -219.512 2427.445 -218.097 C 2442.003 -202.843 2459.788 -193.439 2479.891 -187.898 C 2481.214 -187.522 2482.537 -187.144 2483.859 -186.765 C 2484.86 -186.479 2485.86 -186.193 2486.891 -185.898 C 2486.891 -185.568 2486.891 -185.238 2486.891 -184.898 C 2486.198 -184.97 2485.506 -185.042 2484.793 -185.117 C 2466.376 -186.864 2448.573 -186.892 2433.348 -174.894 C 2424.66 -166.759 2419.193 -156.539 2418.555 -144.566 C 2418.237 -128.85 2422.298 -117.885 2433.141 -106.21 C 2441.276 -98.46 2451.154 -93.746 2461.891 -90.898 C 2449.612 -86.805 2426.753 -99.448 2415.859 -104.804 C 2405.795 -109.9 2396.002 -115.221 2386.891 -121.898 C 2385.903 -122.603 2384.916 -123.308 2383.898 -124.035 C 2377.725 -128.535 2372.004 -133.357 2366.414 -138.562 C 2364.243 -140.572 2362.028 -142.493 2359.766 -144.398 C 2336.159 -165.095 2319.774 -194.82 2308.891 -223.898 C 2308.577 -224.71 2308.263 -225.522 2307.94 -226.359 C 2289.078 -276.273 2293.846 -333.914 2315.203 -382.148 C 2338.252 -432.593 2381.316 -472.182 2432.922 -492.066 C 2445.609 -496.725 2458.354 -500.364 2471.697 -502.539 C 2473.657 -502.86 2475.61 -503.216 2477.563 -503.578 C 2492.132 -505.9 2507.178 -505.072 2521.891 -504.898 Z" fill="#3C6DB3"/>
    <path d="M 2879.891 -819.898 C 2885.883 -819.333 2891.161 -818.09 2896.828 -816.085 C 2897.679 -815.785 2898.529 -815.484 2899.405 -815.174 C 2928.18 -804.628 2952.845 -788.99 2974.891 -767.898 C 2975.442 -767.379 2975.994 -766.86 2976.562 -766.325 C 3013.069 -731.857 3037.668 -680.691 3039.149 -630.279 C 3039.881 -596.639 3036.316 -565.097 3022.891 -533.898 C 3022.574 -533.152 3022.257 -532.407 3021.93 -531.639 C 3012.036 -508.67 2997.635 -488.253 2980.271 -470.325 C 2978.972 -468.982 2977.69 -467.622 2976.41 -466.261 C 2969.798 -459.39 2962.507 -453.597 2954.891 -447.898 C 2954.059 -447.271 2953.228 -446.645 2952.371 -445.999 C 2928.948 -429 2900.78 -415.82 2872.203 -410.835 C 2871.325 -410.675 2870.446 -410.514 2869.541 -410.349 C 2866.662 -409.835 2863.779 -409.359 2860.891 -408.898 C 2859.745 -408.713 2858.599 -408.527 2857.419 -408.336 C 2848.022 -406.938 2838.921 -406.654 2829.453 -406.773 C 2828.028 -406.783 2826.603 -406.792 2825.178 -406.8 C 2821.749 -406.822 2818.32 -406.856 2814.891 -406.898 C 2817.515 -408.647 2819.027 -409.319 2821.953 -410.148 C 2834.618 -414.232 2843.682 -422.275 2849.891 -433.898 C 2855.999 -446.867 2856.917 -459.315 2852.145 -472.902 C 2846.672 -485.978 2837.881 -495.135 2824.891 -500.898 C 2822.547 -501.739 2820.326 -502.357 2817.891 -502.898 C 2821.3 -505.171 2822.792 -505.21 2826.816 -505.39 C 2827.999 -505.453 2829.181 -505.516 2830.4 -505.581 C 2831.655 -505.644 2832.91 -505.707 2834.203 -505.773 C 2844.341 -506.4 2853.365 -507.219 2862.891 -510.898 C 2864.101 -511.331 2865.311 -511.764 2866.559 -512.21 C 2880.142 -517.213 2892.124 -524.139 2902.891 -533.898 C 2903.378 -534.336 2903.865 -534.774 2904.367 -535.225 C 2922.624 -551.846 2933.768 -573.675 2937.891 -597.898 C 2938.064 -598.841 2938.238 -599.783 2938.417 -600.755 C 2940.756 -616.274 2940.018 -633.053 2934.891 -647.898 C 2934.528 -649.067 2934.166 -650.236 2933.793 -651.441 C 2924.506 -679.806 2904.765 -701.396 2878.513 -715.198 C 2869.749 -719.618 2860.474 -722.789 2850.891 -724.898 C 2854.069 -725.957 2856.189 -725.97 2859.52 -725.89 C 2861.197 -725.865 2861.197 -725.865 2862.908 -725.839 C 2865.244 -725.796 2867.58 -725.744 2869.916 -725.683 C 2883.236 -725.515 2895.092 -729.339 2905.141 -738.398 C 2914.144 -748.05 2918.432 -761.047 2918.141 -774.07 C 2916.972 -787.284 2910.572 -798.047 2900.891 -806.898 C 2894.388 -811.853 2887.462 -815.825 2879.891 -818.898 C 2879.891 -819.228 2879.891 -819.558 2879.891 -819.898 Z" fill="#3C6DB3"/>
    <path d="M 2757.891 -701.898 C 2758.551 -701.568 2759.211 -701.238 2759.891 -700.898 C 2754.941 -695.948 2749.991 -690.998 2744.891 -685.898 C 2744.231 -686.228 2743.571 -686.558 2742.891 -686.898 C 2747.492 -692.434 2752.355 -697.297 2757.891 -701.898 Z" fill="#2F4978"/>
  </g>
  <text style="font-family: Arial, sans-serif; font-size: 15.4px; font-weight: 700; white-space: pre; fill: url('#gradient-4');" x="325.265" y="231.658" transform="matrix(0.9999999999999999, 0, 0, 0.9999999999999999, 2.842170943040401e-14, 2.842170943040401e-14)">PC</text>
</svg>