<?xml version="1.0" encoding="utf-8"?>
<svg viewBox="207.608 202.906 91.1 31.905" xmlns="http://www.w3.org/2000/svg">
  <defs>
    <clipPath id="clip0">
      <rect width="24" height="24" fill="white" transform="translate(4 4)"/>
    </clipPath>
    <linearGradient id="paint0_linear" x1="0" y1="0" x2="0" y2="32" gradientUnits="userSpaceOnUse" gradientTransform="matrix(1, 0, 0, 1, 207.608337, 202.916519)">
      <stop stop-color="#BBBBBB" stop-opacity="0.1"/>
      <stop offset="1" stop-opacity="0.1"/>
    </linearGradient>
    <linearGradient gradientUnits="userSpaceOnUse" x1="243.343" y1="173.576" x2="243.343" y2="203.403" id="gradient-2" gradientTransform="matrix(0.937434, 0, 0, 1.035058, -5.129669, 24.277229)">
      <stop offset="0" style="stop-color: rgb(255, 153, 212); stop-opacity: 0.9;"/>
      <stop offset="1" style="stop-color: rgb(108, 0, 169);"/>
    </linearGradient>
  </defs>
  <path d="M 293.609 202.917 L 238.609 202.917 L 238.609 234.917 L 293.609 234.811 C 296.37 234.811 298.609 232.579 298.609 229.828 L 298.609 207.9 C 298.609 205.149 296.37 202.917 293.609 202.917 Z" fill="#0F1418" style=""/>
  <g clip-path="url(#clip0)" transform="matrix(1, 0, 0, 1, 207.60833740234375, 202.91651916503906)"/>
  <path d="M 293.609 202.917 L 212.609 202.917 C 209.847 202.917 207.609 205.156 207.609 207.917 L 207.609 229.917 C 207.609 232.678 209.847 234.917 212.609 234.917 L 293.609 234.917 C 296.37 234.917 298.609 232.678 298.609 229.917 L 298.609 207.917 C 298.609 205.156 296.37 202.917 293.609 202.917 Z" fill="url(#paint0_linear)" transform="matrix(1, 0, 0, 1, 2.842170943040401e-14, 2.842170943040401e-14)"/>
  <path d="M 238.609 202.906 L 212.615 202.906 C 209.905 202.906 207.575 206.097 207.609 208.762 L 207.889 229.988 C 207.924 232.653 210.146 234.811 212.856 234.811 L 238.609 234.811 L 238.609 202.906 Z" style="stroke-width: 0.824; fill: url('#gradient-2');"/>
  <text style="fill: rgb(255, 255, 255); font-family: Arial, sans-serif; font-size: 17px; font-weight: 700; white-space: pre;" x="243.816" y="225.012">Figma</text>
  <g fill="none" fill-rule="evenodd" transform="matrix(1.045242, 0, 0, 0.883432, 216.65213, 207.420502)">
    <circle cx="12" cy="12" fill="#19bcfe" r="4"/>
    <path d="m4 24c2.209139 0 4-1.790861 4-4 0-.6030539 0-1.9363872 0-4-1.79696123 0-3.13029457 0-4 0-2.209139 0-4 1.790861-4 4s1.790861 4 4 4z" fill="#09cf83"/>
    <path d="m4 16h4v-8c-1.930287 0-3.26362033 0-4 0-2.209139 0-4 1.790861-4 4s1.790861 4 4 4z" fill="#a259ff"/>
    <path d="m4 8h4v-8c-1.930287 0-3.26362033 0-4 0-2.209139 0-4 1.790861-4 4s1.790861 4 4 4z" fill="#f24e1e"/>
    <path d="m12 8h-4v-8h4c2.209139 0 4 1.790861 4 4s-1.790861 4-4 4z" fill="#ff7262"/>
  </g>
</svg>