<?xml version="1.0" encoding="utf-8"?>
<svg xmlns="http://www.w3.org/2000/svg" width="64" height="64" viewBox="0 0 32 32">
  <path d="M28.057 6.53L17.952.532a3.8 3.8 0 0 0-3.88 0L3.965 6.53A4.03 4.03 0 0 0 2 10.002v11.996a4.03 4.03 0 0 0 1.948 3.472l10.105 5.998a3.8 3.8 0 0 0 3.88 0L28.04 25.47a4.03 4.03 0 0 0 1.948-3.472V10.002a4.03 4.03 0 0 0-1.93-3.472zM20.23 25.262v.86c-.001.108-.057.207-.148.265l-.512.293c-.08.042-.148 0-.148-.113v-.847a1.66 1.66 0 0 1-1.164.113c-.062-.042-.086-.122-.056-.2l.183-.78c.016-.066.05-.125.102-.17a.18.18 0 0 1 .05-.035.11.11 0 0 1 .08 0 1.41 1.41 0 0 0 1.059-.134 1.41 1.41 0 0 0 .79-1.21c0-.438-.24-.62-.82-.625-.734 0-1.4-.14-1.43-1.224.017-.937.452-1.817 1.186-2.4v-.872c-.001-.1.056-.2.148-.268l.494-.314c.08-.042.148 0 .148.116v.872a1.61 1.61 0 0 1 .967-.116c.07.04.098.128.064.2l-.173.773c-.015.06-.045.113-.088.155-.014.015-.03.028-.05.04s-.05.008-.074 0a1.28 1.28 0 0 0-.931.152 1.17 1.17 0 0 0-.706 1.037c0 .395.208.515.907.53.935 0 1.337.423 1.348 1.362-.018.983-.467 1.908-1.228 2.53zm5.293-1.45c.012.074-.018.15-.078.194L22.9 25.558c-.024.02-.06.023-.087.007s-.04-.05-.033-.08v-.66c.003-.072.05-.136.116-.162l2.516-1.507c.024-.02.06-.023.087-.007s.04.05.033.08v.582zM27.288 9.06l-9.562 5.906c-1.193.706-2.07 1.478-2.07 2.914v11.778c0 .86.353 1.4.882 1.58a3.14 3.14 0 0 1-.53.053 3.13 3.13 0 0 1-1.595-.441L4.308 24.853C3.3 24.25 2.702 23.165 2.706 22V10.002C2.7 8.834 3.3 7.75 4.308 7.144l10.105-5.998c.98-.58 2.196-.58 3.176 0l10.105 5.998c.833.504 1.4 1.35 1.552 2.3-.328-.713-1.083-.9-1.962-.395h.003z" fill-rule="evenodd" style="fill: rgb(21, 21, 24);"/>
  <path d="M 27.351 9.041 L 17.789 14.947 C 16.596 15.653 15.719 16.425 15.719 17.861 L 15.719 29.639 C 15.719 30.499 16.072 31.039 16.601 31.219 C 16.426 31.251 16.248 31.269 16.071 31.272 C 15.509 31.27 14.958 31.118 14.476 30.831 L 4.371 24.834 C 3.363 24.231 2.765 23.146 2.769 21.981 L 2.769 9.983 C 2.763 8.815 3.363 7.731 4.371 7.125 L 14.476 1.127 C 15.456 0.547 16.672 0.547 17.652 1.127 L 27.757 7.125 C 28.59 7.629 29.157 8.475 29.309 9.425 C 28.981 8.712 28.226 8.525 27.347 9.03 L 27.35 9.03 L 27.351 9.041 Z" fill-rule="evenodd" style="fill: rgb(255, 255, 255);"/>
  <path d="M 20.23 25.324 L 20.23 26.184 C 20.229 26.292 20.173 26.391 20.082 26.449 L 19.57 26.742 C 19.49 26.784 19.422 26.742 19.422 26.629 L 19.422 25.782 C 19.06 25.96 18.647 26 18.258 25.895 C 18.196 25.853 18.172 25.773 18.202 25.695 L 18.385 24.915 C 18.401 24.849 18.435 24.79 18.487 24.745 C 18.501 24.731 18.518 24.719 18.537 24.71 C 18.562 24.7 18.591 24.7 18.617 24.71 C 18.974 24.806 19.354 24.758 19.676 24.576 C 20.141 24.349 20.445 23.884 20.466 23.366 C 20.466 22.928 20.226 22.746 19.646 22.741 C 18.912 22.741 18.246 22.601 18.216 21.517 C 18.233 20.58 18.668 19.7 19.402 19.117 L 19.402 18.245 C 19.401 18.145 19.458 18.045 19.55 17.977 L 20.044 17.663 C 20.124 17.621 20.192 17.663 20.192 17.779 L 20.192 18.651 C 20.494 18.513 20.832 18.473 21.159 18.535 C 21.229 18.575 21.257 18.663 21.223 18.735 L 21.05 19.508 C 21.035 19.568 21.005 19.621 20.962 19.663 C 20.948 19.678 20.932 19.691 20.912 19.703 C 20.892 19.715 20.862 19.711 20.838 19.703 C 20.519 19.633 20.186 19.688 19.907 19.855 C 19.49 20.035 19.215 20.439 19.201 20.892 C 19.201 21.287 19.409 21.407 20.108 21.422 C 21.043 21.422 21.445 21.845 21.456 22.784 C 21.438 23.767 20.989 24.692 20.228 25.314 L 20.23 25.324 Z M 25.523 23.874 C 25.535 23.948 25.505 24.024 25.445 24.068 L 22.9 25.62 C 22.876 25.64 22.84 25.643 22.813 25.627 C 22.786 25.611 22.773 25.577 22.78 25.547 L 22.78 24.887 C 22.783 24.815 22.83 24.751 22.896 24.725 L 25.412 23.218 C 25.436 23.198 25.472 23.195 25.499 23.211 C 25.526 23.227 25.539 23.261 25.532 23.291 L 25.532 23.873 L 25.523 23.874 Z" fill-rule="evenodd" style="fill: rgb(255, 255, 255);"/>
</svg>