<svg xmlns="http://www.w3.org/2000/svg" xmlns:xlink="http://www.w3.org/1999/xlink" viewBox="281.745 210.96 109.393 32.001"><defs><linearGradient id="gradient-1" x1="0" x2="0" y1="0" y2="32" gradientTransform="matrix(1.202107, 0, 0, 1, 281.744466, 210.960281)" gradientUnits="userSpaceOnUse"><stop stop-color="#BBB" stop-opacity=".1"/><stop offset="1" stop-opacity=".1"/></linearGradient><linearGradient id="gradient-4" x1="269.493" x2="269.493" y1="210.704" y2="227.454" gradientTransform="matrix(0.893443, 0, 0, 0.893443, 98.335136, 31.262035)" gradientUnits="userSpaceOnUse"><stop offset="0" style="stop-color:#fff"/><stop offset="1" style="stop-color:#bac6ff"/></linearGradient></defs><linearGradient id="b" x1="0" x2=".907" y1=".5" y2=".92" gradientTransform="matrix(14.152675, 0, 0, 14.990975, 263.515203, 224.521099)" gradientUnits="userSpaceOnUse" xlink:href="#a"/><linearGradient id="a"><stop offset="0" stop-color="#00c4ff"/><stop offset=".839" stop-color="#0072ff"/></linearGradient><linearGradient id="c" x1="0" x2=".907" y1=".5" y2=".92" gradientTransform="matrix(23.979964, 0, 0, 23.83009, 258.601805, 220.026358)" gradientUnits="userSpaceOnUse" xlink:href="#a"/><path fill="#0F1418" d="M 384.605 210.961 L 312.745 210.961 L 312.745 242.961 L 384.605 242.961 C 388.213 242.961 391.138 240.722 391.138 237.961 L 391.138 215.961 C 391.138 213.2 388.213 210.961 384.605 210.961 Z" transform="matrix(0.9999999999999999, 0, 0, 0.9999999999999999, 0, 2.842170943040401e-14)"/><path fill="url(#gradient-1)" d="M 385.126 210.961 L 287.756 210.961 C 284.436 210.961 281.745 213.2 281.745 215.961 L 281.745 237.961 C 281.745 240.722 284.436 242.961 287.756 242.961 L 385.126 242.961 C 388.446 242.961 391.138 240.722 391.138 237.961 L 391.138 215.961 C 391.138 213.2 388.446 210.961 385.126 210.961 Z" transform="matrix(0.9999999999999999, 0, 0, 0.9999999999999999, 0, 2.842170943040401e-14)"/><text style="font-family:Arial,sans-serif;font-size:15.4px;font-weight:700;white-space:pre;fill:url(#gradient-4)" x="317.866" y="231.658" transform="matrix(0.8496450185775756, 0, 0, 1.1977429389953613, 45.95346450805664, -43.0654373168945)">VS Codium</text><path d="M 312.745 210.961 L 285.104 210.961 C 282.213 210.961 279.901 213.192 279.938 215.945 L 280.236 237.88 C 280.274 240.634 282.644 242.865 285.535 242.865 L 312.745 242.865 L 312.745 210.961 Z" style="fill:rgba(38,22,44,.957)" transform="matrix(0.9999999999999999, 0, 0, 0.9999999999999999, 0, 2.842170943040401e-14)"/><g transform="matrix(0.9509960412979125, 0, 0, 0.89511901140213, 39.700321197509766, 20.78282737731935)"><title>logo</title><path fill="url(#b)" d="M 272.65 224.78 C 272.749 224.625 272.925 224.522 273.11 224.521 C 273.369 224.52 273.615 224.666 273.766 224.873 C 273.907 225.071 273.951 225.322 273.951 225.561 C 273.949 225.897 273.871 226.228 273.779 226.55 C 273.548 227.309 273.235 228.041 273 228.799 C 272.743 229.66 272.619 230.62 272.966 231.475 C 273.146 230.969 273.326 230.463 273.506 229.957 C 273.558 229.823 273.625 229.671 273.768 229.616 C 273.968 229.545 274.171 229.753 274.166 229.946 C 274.111 230.227 274.005 230.494 273.922 230.767 C 273.247 232.797 272.49 234.797 271.763 236.808 C 272.731 235.924 273.702 235.041 274.671 234.158 C 274.95 233.904 275.253 233.627 275.338 233.243 C 275.423 232.867 275.265 232.493 275.085 232.169 C 274.877 231.783 274.613 231.416 274.515 230.982 C 274.466 230.757 274.481 230.498 274.633 230.313 C 274.742 230.175 274.941 230.103 275.109 230.171 C 275.275 230.234 275.376 230.394 275.454 230.544 C 275.717 231.073 275.882 231.65 275.938 232.238 C 276.118 231.875 276.3 231.513 276.48 231.151 C 276.588 230.937 276.685 230.708 276.862 230.539 C 276.968 230.434 277.124 230.368 277.274 230.402 C 277.462 230.444 277.595 230.615 277.645 230.793 C 277.703 230.982 277.642 231.179 277.581 231.359 C 277.399 231.862 277.114 232.317 276.839 232.772 C 276.456 233.374 276.048 233.963 275.603 234.522 C 275.858 234.352 276.125 234.173 276.437 234.138 C 276.731 234.099 277.056 234.271 277.154 234.559 C 277.219 234.754 277.114 234.975 276.936 235.071 C 276.676 235.216 276.369 235.214 276.079 235.227 C 275.031 235.256 274.01 235.772 273.359 236.593 C 272.846 237.249 272.584 238.063 272.063 238.713 C 271.734 239.109 271.27 239.606 270.759 239.496 C 270.079 239.35 270.079 238.287 269.91 237.76 C 269.822 237.494 269.658 237.252 269.43 237.086 C 269.232 236.939 268.993 236.855 268.753 236.809 C 268.2 236.702 267.63 236.759 267.078 236.645 C 266.803 236.588 266.531 236.478 266.32 236.287 C 266.119 236.111 265.98 235.875 265.884 235.628 C 265.676 235.09 265.634 234.507 265.449 233.962 C 265.182 233.178 264.653 232.485 263.965 232.024 C 263.819 231.926 263.661 231.83 263.567 231.678 C 263.491 231.558 263.497 231.388 263.598 231.284 C 263.767 231.101 264.071 231.085 264.267 231.237 C 264.666 231.521 264.724 232.072 265.097 232.38 C 265.097 231.871 265.095 231.363 265.094 230.854 C 265.095 230.707 265.079 230.549 265.152 230.416 C 265.219 230.289 265.404 230.255 265.511 230.35 C 265.657 230.471 265.701 230.67 265.722 230.85 C 265.794 231.551 265.863 232.252 265.936 232.953 C 266.301 232.625 266.469 232.093 266.351 231.615 C 266.315 231.463 266.257 231.306 266.29 231.148 C 266.317 231.015 266.457 230.922 266.59 230.945 C 266.739 230.966 266.846 231.094 266.902 231.225 C 266.991 231.442 266.991 231.685 266.973 231.916 C 266.92 232.442 266.697 232.929 266.544 233.43 C 266.394 233.872 266.291 234.363 266.441 234.82 C 266.575 235.247 266.914 235.585 267.311 235.776 C 267.802 236.017 268.355 236.092 268.896 236.113 C 268.568 235.538 268.21 234.929 268.216 234.244 C 268.222 233.555 268.661 232.974 268.779 232.309 C 268.981 231.204 268.483 230.004 267.556 229.371 C 267.143 229.088 266.649 228.962 266.226 228.7 C 265.843 228.465 265.499 228.048 265.559 227.574 C 265.85 227.461 266.175 227.533 266.437 227.684 C 266.95 227.958 267.277 228.477 267.792 228.746 C 267.973 228.845 268.181 228.894 268.387 228.881 C 268.499 228.614 268.387 228.313 268.207 228.105 C 267.868 227.697 267.296 227.597 266.942 227.207 C 266.764 227.003 266.665 226.713 266.739 226.446 C 266.8 226.236 267.018 226.092 267.235 226.108 C 267.556 226.128 267.833 226.33 268.052 226.551 C 268.779 227.277 269.197 228.265 269.361 229.269 C 269.555 230.453 269.404 231.661 269.166 232.827 C 269.121 233.064 269.038 233.308 269.099 233.551 C 269.126 233.663 269.207 233.779 269.331 233.789 C 269.502 233.8 269.644 233.683 269.768 233.581 C 270.158 233.263 270.468 232.835 270.595 232.344 C 270.695 231.986 270.698 231.612 270.691 231.243 C 270.693 231.059 270.679 230.856 270.789 230.696 C 270.868 230.573 271.015 230.476 271.166 230.512 C 271.284 230.535 271.368 230.637 271.405 230.747 C 271.463 230.928 271.454 231.124 271.419 231.309 C 271.307 231.819 271.207 232.336 271.005 232.82 C 270.863 233.168 270.67 233.499 270.41 233.771 C 270.122 234.075 269.768 234.319 269.536 234.674 C 269.379 234.916 269.277 235.218 269.345 235.507 C 269.395 235.738 269.571 235.927 269.783 236.023 C 270.092 236.164 270.467 236.157 270.768 235.998 C 271.007 235.869 271.177 235.646 271.312 235.416 C 271.55 235.003 271.695 234.545 271.814 234.086 C 271.999 233.345 272.107 232.585 272.15 231.822 C 272.199 231.008 272.051 230.166 271.64 229.454 C 271.422 229.073 271.113 228.749 270.752 228.501 C 270.428 228.259 270.071 228.05 269.807 227.737 C 269.561 227.447 269.391 227.056 269.48 226.671 C 269.649 226.565 269.861 226.547 270.048 226.613 C 270.4 226.733 270.676 227.015 270.854 227.336 C 271.095 227.712 271.296 228.162 271.722 228.366 C 271.376 227.685 271.019 227.01 270.668 226.332 C 270.555 226.102 270.442 225.852 270.472 225.59 C 270.494 225.39 270.679 225.226 270.88 225.227 C 271.058 225.227 271.224 225.327 271.33 225.467 C 271.451 225.624 271.509 225.817 271.564 226.005 C 271.843 226.977 272.122 227.948 272.402 228.919 C 272.754 228.249 272.903 227.472 272.803 226.719 C 272.759 226.32 272.642 225.934 272.549 225.545 C 272.486 225.29 272.505 225.005 272.65 224.78 Z"/><path fill="url(#c)" d="M 267.999 241.668 C 268.531 241.812 268.847 242.36 268.704 242.892 C 268.56 243.424 268.012 243.74 267.48 243.597 C 264.932 242.912 262.679 241.403 261.075 239.31 C 259.471 237.217 258.602 234.654 258.602 232.016 C 258.602 228.839 259.866 225.786 262.114 223.538 C 264.362 221.29 267.415 220.026 270.592 220.026 C 273.769 220.026 276.822 221.29 279.07 223.538 C 281.318 225.786 282.582 228.839 282.582 232.016 C 282.582 234.644 281.718 237.197 280.129 239.285 C 278.535 241.373 276.302 242.882 273.769 243.582 C 273.237 243.728 272.687 243.414 272.54 242.882 C 272.394 242.35 272.708 241.8 273.24 241.653 C 275.348 241.074 277.211 239.815 278.54 238.076 C 279.864 236.333 280.584 234.204 280.584 232.016 C 280.584 229.369 279.53 226.826 277.656 224.952 C 275.783 223.079 273.24 222.025 270.592 222.025 C 267.944 222.025 265.401 223.079 263.528 224.952 C 261.654 226.826 260.6 229.369 260.6 232.016 C 260.6 234.214 261.325 236.353 262.664 238.096 C 263.998 239.84 265.876 241.099 267.999 241.668 Z"/></g></svg>